<svg width="16" height="17" viewBox="0 0 16 17" fill="none" xmlns="http://www.w3.org/2000/svg">
<path fill-rule="evenodd" clip-rule="evenodd" d="M11.3516 3.75C11.3516 5.82106 9.67261 7.5 7.60156 7.5C5.5305 7.5 3.85156 5.82106 3.85156 3.75C3.85156 1.67894 5.5305 0 7.60156 0C9.67261 0 11.3516 1.67894 11.3516 3.75ZM6.10156 9C3.20207 9 0.851562 11.3505 0.851562 14.25C0.851562 15.4927 1.85892 16.5 3.10156 16.5H8.65854C8.98269 16.5 9.16681 16.1041 8.99896 15.8267C8.58804 15.1478 8.35156 14.3516 8.35156 13.5C8.35156 11.9744 9.11071 10.6262 10.2719 9.81233C10.5444 9.62138 10.5212 9.18315 10.1956 9.11415C9.84271 9.03937 9.47671 9 9.10156 9H6.10156ZM12.8516 10.5C13.2658 10.5 13.6016 10.8358 13.6016 11.25V12.75H15.1016C15.5158 12.75 15.8516 13.0858 15.8516 13.5C15.8516 13.9142 15.5158 14.25 15.1016 14.25H13.6016V15.75C13.6016 16.1642 13.2658 16.5 12.8516 16.5C12.4373 16.5 12.1016 16.1642 12.1016 15.75V14.25H10.6016C10.1873 14.25 9.85156 13.9142 9.85156 13.5C9.85156 13.0858 10.1873 12.75 10.6016 12.75H12.1016V11.25C12.1016 10.8358 12.4373 10.5 12.8516 10.5Z" fill="white"/>
</svg>
