<svg width="12" height="12" viewBox="0 0 12 12" fill="none" xmlns="http://www.w3.org/2000/svg">
<path d="M2.94095 0.000206632C2.75753 -0.00369422 2.5774 0.0477192 2.42562 0.147378C2.27384 0.247037 2.15795 0.390016 2.09405 0.556308C2.03015 0.722601 2.02142 0.903987 2.06908 1.0753C2.11674 1.24661 2.21841 1.39923 2.35997 1.51209L7.76116 5.9862L2.35997 10.4587C2.26205 10.5283 2.18004 10.6167 2.11908 10.7183C2.05813 10.82 2.01953 10.9327 2.00572 11.0495C1.99191 11.1662 2.00317 11.2845 2.03881 11.3968C2.07445 11.5091 2.13369 11.6132 2.21283 11.7024C2.29196 11.7915 2.38929 11.8639 2.49871 11.915C2.60813 11.9661 2.72729 11.9948 2.84873 11.9994C2.97016 12.0039 3.09125 11.9842 3.20442 11.9414C3.31759 11.8986 3.4204 11.8336 3.50641 11.7506L9.69028 6.63464C9.78739 6.55451 9.86537 6.45505 9.91884 6.34296C9.97231 6.23086 10 6.10886 10 5.98541C10 5.86197 9.97231 5.73996 9.91884 5.62787C9.86537 5.51578 9.78739 5.41622 9.69028 5.33609L3.50641 0.215205C3.35019 0.0810394 3.14983 0.00476303 2.94095 9.74702e-06V0.000206632Z" fill="#212529"/>
</svg>
