<svg width="15" height="15" viewBox="0 0 15 15" fill="none" xmlns="http://www.w3.org/2000/svg">
<path d="M10.1818 5.36379C10.8909 5.36379 11.4909 5.80017 11.7091 6.45474H13.4545C13.7818 6.45474 14 6.67293 14 7.00022C14 7.3275 13.7818 7.54569 13.4545 7.54569H11.7091C11.4364 8.41845 10.5091 8.85483 9.63636 8.52754C9.14545 8.3639 8.81818 7.98207 8.65455 7.54569H2.54545C2.21818 7.54569 2 7.3275 2 7.00022C2 6.67293 2.21818 6.45474 2.54545 6.45474H8.65455C8.87273 5.80017 9.47273 5.36379 10.1818 5.36379ZM5.81818 1C5.10909 1 4.50909 1.43638 4.29091 2.09095H2.54545C2.21818 2.09095 2 2.30914 2 2.63642C2 2.96371 2.21818 3.1819 2.54545 3.1819H4.29091C4.56364 4.05466 5.49091 4.49103 6.36364 4.16375C6.85455 4.00011 7.18182 3.61828 7.34545 3.1819H13.4545C13.7818 3.1819 14 2.96371 14 2.63642C14 2.30914 13.7818 2.09095 13.4545 2.09095H7.34545C7.12727 1.43638 6.52727 1 5.81818 1ZM4.29091 10.8185H2.54545C2.21818 10.8185 2 11.0367 2 11.364C2 11.6913 2.21818 11.9095 2.54545 11.9095H4.29091C4.56364 12.7822 5.49091 13.2186 6.36364 12.8913C6.85455 12.7277 7.18182 12.3459 7.34545 11.9095H13.4545C13.7818 11.9095 14 11.6913 14 11.364C14 11.0367 13.7818 10.8185 13.4545 10.8185H7.34545C7.07273 9.94578 6.14545 9.5094 5.27273 9.83668C4.83636 10.0003 4.45455 10.3276 4.29091 10.8185Z" fill="#212529"/>
</svg>
