<svg width="15" height="15" viewBox="0 0 15 15" fill="none" xmlns="http://www.w3.org/2000/svg">
<path d="M13.75 3.10003H10.625V2.40001C10.625 1.6279 10.0644 1 9.375 1H5.625C4.93562 1 4.37499 1.62787 4.37499 2.40001V3.09999H1.25001C0.560596 3.10003 0 3.72789 0 4.5V6.59999C0 7.37213 0.560596 8 1.25001 8H6.25002V7.64999C6.25002 7.45653 6.3898 7.29998 6.56253 7.29998H8.43753C8.61026 7.29998 8.75004 7.45653 8.75004 7.64999V8H13.75C14.4394 8 15 7.37213 15 6.59999V4.5C15 3.72789 14.4394 3.10003 13.75 3.10003ZM9.375 3.10003H5.625V2.40001H9.375V3.10003Z" fill="#212529"/>
<path d="M14.8266 8.0333C14.7201 7.98003 14.5929 7.99236 14.4988 8.06441C14.2767 8.2341 14.0179 8.32371 13.7499 8.32371H8.74999V9.26975C8.74999 9.44406 8.61022 9.58511 8.43748 9.58511H6.56249C6.38975 9.58511 6.24998 9.44406 6.24998 9.26975V8.32371H1.25001C0.982059 8.32371 0.72328 8.2341 0.501093 8.06441C0.406786 7.99174 0.279843 7.97941 0.17332 8.0333C0.0671483 8.08661 0 8.1959 0 8.31573V12.7386C0 13.4343 0.560595 14 1.25001 14H13.75C14.4394 14 15 13.4343 15 12.7386V8.31573C15 8.1959 14.9328 8.08661 14.8266 8.0333Z" fill="#212529"/>
</svg>
