<svg width="15" height="15" viewBox="0 0 15 15" fill="none" xmlns="http://www.w3.org/2000/svg">
<path d="M7 5C6.73487 4.99973 6.48069 4.90087 6.29321 4.72511C6.10574 4.54936 6.00029 4.31106 6 4.0625V0.9375C6 0.68886 6.10536 0.450403 6.29289 0.274587C6.48043 0.098772 6.73478 0 7 0C7.26522 0 7.51957 0.098772 7.70711 0.274587C7.89464 0.450403 8 0.68886 8 0.9375V4.0625C7.99971 4.31106 7.89426 4.54936 7.70679 4.72511C7.51931 4.90087 7.26513 4.99973 7 5Z" fill="#212529"/>
<path d="M10.0293 6C9.82576 6.00002 9.62674 5.93966 9.45746 5.82656C9.28818 5.71347 9.15624 5.5527 9.07834 5.36461C9.00043 5.17652 8.98006 4.96956 9.01979 4.76989C9.05953 4.57021 9.15758 4.38681 9.30156 4.24288L11.243 2.30146C11.436 2.10844 11.6978 2 11.9708 2C12.2437 2 12.5055 2.10844 12.6985 2.30146C12.8916 2.49448 13 2.75627 13 3.02924C13 3.30221 12.8916 3.564 12.6985 3.75702L10.7571 5.69843C10.6618 5.7943 10.5483 5.87032 10.4234 5.92208C10.2985 5.97384 10.1646 6.00032 10.0293 6Z" fill="#212529"/>
<path d="M9.9375 8C9.68886 8 9.4504 7.89464 9.27459 7.70711C9.09877 7.51957 9 7.26522 9 7C9 6.73478 9.09877 6.48043 9.27459 6.29289C9.4504 6.10536 9.68886 6 9.9375 6H13.0625C13.3111 6 13.5496 6.10536 13.7254 6.29289C13.9012 6.48043 14 6.73478 14 7C14 7.26522 13.9012 7.51957 13.7254 7.70711C13.5496 7.89464 13.3111 8 13.0625 8H9.9375Z" fill="#212529"/>
<path d="M11.9711 13C11.836 13.0003 11.7021 12.9738 11.5772 12.9221C11.4523 12.8704 11.3389 12.7944 11.2436 12.6985L9.30279 10.7578C9.20694 10.6623 9.13086 10.5489 9.0789 10.424C9.02694 10.2991 9.00013 10.1652 9 10.0299C8.99987 9.89459 9.02642 9.76061 9.07813 9.6356C9.12984 9.51059 9.2057 9.39701 9.30136 9.30135C9.39702 9.20569 9.51061 9.12983 9.63563 9.07813C9.76064 9.02642 9.89463 8.99987 10.0299 9C10.1652 9.00013 10.2991 9.02694 10.4241 9.0789C10.549 9.13085 10.6624 9.20693 10.7579 9.30277L12.6987 11.2435C12.8426 11.3874 12.9405 11.5707 12.9802 11.7703C13.0199 11.9699 12.9996 12.1768 12.9217 12.3648C12.8438 12.5528 12.7119 12.7135 12.5427 12.8265C12.3736 12.9396 12.1746 13 11.9711 13Z" fill="#212529"/>
<path d="M7 14C6.73487 13.9997 6.48069 13.9009 6.29321 13.7251C6.10574 13.5494 6.00029 13.3111 6 13.0625V9.9375C6 9.68886 6.10536 9.4504 6.29289 9.27459C6.48043 9.09877 6.73478 9 7 9C7.26522 9 7.51957 9.09877 7.70711 9.27459C7.89464 9.4504 8 9.68886 8 9.9375V13.0625C7.99971 13.3111 7.89426 13.5494 7.70679 13.7251C7.51931 13.9009 7.26513 13.9997 7 14Z" fill="#212529"/>
<path d="M3.02898 13C2.82547 13 2.62652 12.9397 2.4573 12.8266C2.28808 12.7136 2.15619 12.5529 2.07831 12.3648C2.00043 12.1768 1.98007 11.9699 2.01979 11.7703C2.05951 11.5707 2.15753 11.3874 2.30146 11.2435L4.24219 9.30277C4.33766 9.20693 4.4511 9.13085 4.57601 9.0789C4.70091 9.02694 4.83484 9.00013 4.97012 9C5.10541 8.99987 5.23939 9.02642 5.3644 9.07813C5.48941 9.12983 5.60299 9.20569 5.69865 9.30135C5.79431 9.39701 5.87017 9.51059 5.92188 9.6356C5.97358 9.76061 6.00013 9.89459 6 10.0299C5.99987 10.1652 5.97306 10.2991 5.9211 10.424C5.86915 10.5489 5.79307 10.6623 5.69723 10.7578L3.7565 12.6985C3.66118 12.7944 3.5478 12.8704 3.42292 12.9221C3.29805 12.9738 3.16415 13.0003 3.02898 13Z" fill="#212529"/>
<path d="M0.9375 8C0.68886 8 0.450403 7.89464 0.274587 7.70711C0.098772 7.51957 0 7.26522 0 7C0 6.73478 0.098772 6.48043 0.274587 6.29289C0.450403 6.10536 0.68886 6 0.9375 6H4.0625C4.31114 6 4.5496 6.10536 4.72541 6.29289C4.90123 6.48043 5 6.73478 5 7C5 7.26522 4.90123 7.51957 4.72541 7.70711C4.5496 7.89464 4.31114 8 4.0625 8H0.9375Z" fill="#212529"/>
<path d="M4.97077 6C4.83555 6.00032 4.7016 5.97384 4.57668 5.92208C4.45175 5.87032 4.33833 5.7943 4.24297 5.69843L2.30147 3.75702C2.20589 3.66145 2.13008 3.54798 2.07835 3.42311C2.02662 3.29824 2 3.1644 2 3.02924C2 2.89408 2.02662 2.76024 2.07835 2.63537C2.13008 2.51049 2.20589 2.39703 2.30147 2.30146C2.39705 2.20588 2.51051 2.13007 2.63539 2.07835C2.76027 2.02662 2.89411 2 3.02928 2C3.16445 2 3.29829 2.02662 3.42317 2.07835C3.54805 2.13007 3.66151 2.20588 3.75709 2.30146L5.69858 4.24288C5.84251 4.38683 5.94052 4.57023 5.98023 4.76988C6.01993 4.96954 5.99955 5.17648 5.92165 5.36455C5.84375 5.55261 5.71184 5.71336 5.54258 5.82647C5.37333 5.93958 5.17434 5.99997 4.97077 6Z" fill="#212529"/>
</svg>
