<svg width="20" height="21" viewBox="0 0 20 21" fill="none" xmlns="http://www.w3.org/2000/svg">
<path d="M14.7822 4.17997H2.5378C1.68984 4.17997 1 4.86982 1 5.71778V17.9622C1 18.8102 1.68988 19.5 2.5378 19.5H14.7822C15.6301 19.5 16.32 18.8102 16.32 17.9622V5.71782C16.32 4.86985 15.6301 4.17997 14.7822 4.17997ZM13.4415 12.24H9.05996V16.6215C9.05996 16.8424 8.88088 17.0215 8.65996 17.0215C8.43904 17.0215 8.25996 16.8424 8.25996 16.6215V12.24H3.87848C3.65756 12.24 3.47848 12.0608 3.47848 11.84C3.47848 11.6191 3.65756 11.44 3.87848 11.44H8.26V7.05846C8.26 6.83758 8.43908 6.65846 8.66 6.65846C8.88092 6.65846 9.06 6.83758 9.06 7.05846V11.44H13.4415C13.6624 11.44 13.8415 11.6191 13.8415 11.84C13.8415 12.0608 13.6624 12.24 13.4415 12.24H13.4415ZM19 3.03781V15.2822C19 16.1301 18.3101 16.82 17.4622 16.82H17.12V5.71782C17.12 4.42873 16.0712 3.38001 14.7822 3.38001H3.68V3.03781C3.68 2.18984 4.36988 1.5 5.2178 1.5H17.4622C18.3101 1.5 19 2.18984 19 3.03781Z" fill="#212529"/>
</svg>
