<svg width="13" height="15" viewBox="0 0 13 15" fill="none" xmlns="http://www.w3.org/2000/svg">
<path d="M13 7.50003C13 11.0899 10.0899 14 6.5 14C2.91015 14 0 11.0899 0 7.50003C0 3.91018 2.91015 1.00003 6.5 1.00003C10.0899 1.00003 13 3.91018 13 7.50003Z" fill="#212529"/>
<path d="M5.53742 11.7273L5.64822 5.50994L6.82861 5.50994L6.93941 11.7273L5.53742 11.7273ZM6.23628 2.91903C6.47208 2.91903 6.67378 3.00142 6.8414 3.16619C7.00901 3.33381 7.0914 3.53551 7.08856 3.77131C7.0914 4.00426 7.00901 4.20312 6.8414 4.3679C6.67378 4.53551 6.47208 4.61932 6.23628 4.61932C6.00617 4.61932 5.80731 4.53551 5.63969 4.3679C5.47208 4.20312 5.38685 4.00426 5.38401 3.77131C5.38685 3.61506 5.42805 3.47159 5.50759 3.34091C5.5843 3.21307 5.68657 3.1108 5.81441 3.03409C5.94225 2.95739 6.08288 2.91903 6.23628 2.91903Z" fill="white"/>
</svg>
