<svg width="24" height="36" viewBox="0 0 24 36" fill="none" xmlns="http://www.w3.org/2000/svg">
<g filter="url(#filter0_d_7_2575)">
<rect width="14" height="26" rx="3" transform="matrix(-1 0 0 1 19 5)" fill="#3182DE"/>
</g>
<path d="M14.4119 14.0001C14.5265 13.9975 14.6391 14.0318 14.734 14.0983C14.8288 14.1647 14.9013 14.26 14.9412 14.3709C14.9812 14.4817 14.9866 14.6027 14.9568 14.7169C14.927 14.8311 14.8635 14.9328 14.775 15.0081L11.3993 17.9908L14.775 20.9725C14.8362 21.0189 14.8875 21.0778 14.9256 21.1456C14.9637 21.2133 14.9878 21.2885 14.9964 21.3663C15.0051 21.4442 14.998 21.523 14.9757 21.5979C14.9535 21.6728 14.9164 21.7421 14.867 21.8016C14.8175 21.861 14.7567 21.9093 14.6883 21.9433C14.6199 21.9774 14.5454 21.9966 14.4695 21.9996C14.3937 22.0026 14.318 21.9895 14.2472 21.9609C14.1765 21.9324 14.1122 21.8891 14.0585 21.8337L10.1936 18.4231C10.1329 18.3697 10.0841 18.3034 10.0507 18.2286C10.0173 18.1539 10 18.0726 10 17.9903C10 17.908 10.0173 17.8266 10.0507 17.7519C10.0841 17.6772 10.1329 17.6108 10.1936 17.5574L14.0585 14.1435C14.1561 14.054 14.2814 14.0032 14.4119 14V14.0001Z" fill="white"/>
<defs>
<filter id="filter0_d_7_2575" x="0.272727" y="0.272727" width="23.4545" height="35.4545" filterUnits="userSpaceOnUse" color-interpolation-filters="sRGB">
<feFlood flood-opacity="0" result="BackgroundImageFix"/>
<feColorMatrix in="SourceAlpha" type="matrix" values="0 0 0 0 0 0 0 0 0 0 0 0 0 0 0 0 0 0 127 0" result="hardAlpha"/>
<feOffset/>
<feGaussianBlur stdDeviation="2.36364"/>
<feComposite in2="hardAlpha" operator="out"/>
<feColorMatrix type="matrix" values="0 0 0 0 0.509804 0 0 0 0 0.635294 0 0 0 0 0.862745 0 0 0 1 0"/>
<feBlend mode="normal" in2="BackgroundImageFix" result="effect1_dropShadow_7_2575"/>
<feBlend mode="normal" in="SourceGraphic" in2="effect1_dropShadow_7_2575" result="shape"/>
</filter>
</defs>
</svg>
