<svg width="15" height="15" viewBox="0 0 15 15" fill="none" xmlns="http://www.w3.org/2000/svg">
<g id="add 2" clip-path="url(#clip0_114_18330)">
<path id="Vector" d="M11.0866 2.75998H1.90335C1.26738 2.75998 0.75 3.27736 0.75 3.91333V13.0966C0.75 13.7326 1.26741 14.25 1.90335 14.25H11.0866C11.7226 14.25 12.24 13.7326 12.24 13.0966V3.91336C12.24 3.27739 11.7226 2.75998 11.0866 2.75998ZM10.0811 8.80498H6.79497V12.0911C6.79497 12.2568 6.66066 12.3911 6.49497 12.3911C6.32928 12.3911 6.19497 12.2568 6.19497 12.0911V8.80498H2.90886C2.74317 8.80498 2.60886 8.67063 2.60886 8.50497C2.60886 8.33931 2.74317 8.20497 2.90886 8.20497H6.195V4.91885C6.195 4.75319 6.32931 4.61885 6.495 4.61885C6.66069 4.61885 6.795 4.75319 6.795 4.91885V8.20497H10.0811C10.2468 8.20497 10.3811 8.33931 10.3811 8.50497C10.3811 8.67063 10.2468 8.80498 10.0811 8.80498H10.0811ZM14.25 1.90336V11.0866C14.25 11.7226 13.7326 12.24 13.0966 12.24H12.84V3.91336C12.84 2.94655 12.0534 2.16001 11.0866 2.16001H2.76V1.90336C2.76 1.26738 3.27741 0.75 3.91335 0.75H13.0966C13.7326 0.75 14.25 1.26738 14.25 1.90336Z" fill="white"/>
</g>
<defs>
<clipPath id="clip0_114_18330">
<rect width="15" height="15" fill="white"/>
</clipPath>
</defs>
</svg>
