<svg width="124" height="80" viewBox="0 0 124 80" fill="none" xmlns="http://www.w3.org/2000/svg">
<path d="M120.982 11.8295C116.587 11.0741 113.126 7.6135 112.371 3.21804L111.852 0.200623H96.6328V79.7997H111.853L112.371 76.7822C113.127 72.3868 116.587 68.9262 120.983 68.1708L124 67.652V12.348L120.982 11.8295Z" fill="#212529"/>
<path d="M89.3672 0.200378H12.1474L11.6289 3.21803C10.8735 7.6135 7.41288 11.0739 3.01766 11.8295L0 12.348V67.652L3.01766 68.1705C7.41288 68.9259 10.8737 72.3865 11.6289 76.782L12.1474 79.7997H89.3672V0.200378ZM29.466 25.4688V38.3854H22.2004V25.4688H29.466ZM44.9662 25.4688V38.3854H37.7006V25.4688H44.9662ZM55.8647 47.6694V54.935H22.281V47.6694H55.8647ZM60.4662 25.4688V38.3854H53.2006V25.4688H60.4662ZM75.9662 25.4688V38.3854H68.7006V25.4688H75.9662Z" fill="#212529"/>
</svg>
