<svg width="12" height="12" viewBox="0 0 12 12" fill="none" xmlns="http://www.w3.org/2000/svg">
<g id="close 4" clip-path="url(#clip0_114_18346)">
<g id="02 User">
<path id="Vector" d="M0.586047 12C0.470144 12 0.356837 11.9656 0.26046 11.9012C0.164083 11.8369 0.0889654 11.7453 0.0446082 11.6383C0.000250996 11.5312 -0.0113527 11.4134 0.0112649 11.2997C0.0338824 11.186 0.0897052 11.0816 0.171672 10.9996L10.9998 0.171518C11.1097 0.0616186 11.2588 -0.00012207 11.4142 -0.00012207C11.5696 -0.00012207 11.7186 0.0616186 11.8285 0.171518C11.9384 0.281417 12.0002 0.430472 12.0002 0.585893C12.0002 0.741314 11.9384 0.890369 11.8285 1.00027L1.00042 11.8284C0.946056 11.8829 0.881462 11.9261 0.810351 11.9555C0.739239 11.985 0.663012 12.0001 0.586047 12Z" fill="#212529"/>
<path id="Vector_2" d="M11.4141 12C11.3372 12.0001 11.2609 11.985 11.1898 11.9555C11.1187 11.9261 11.0541 11.8829 10.9998 11.8284L0.17164 1.00027C0.0617407 0.890369 0 0.741314 0 0.585893C0 0.430472 0.0617407 0.281417 0.17164 0.171518C0.281539 0.0616186 0.430594 -0.00012207 0.586015 -0.00012207C0.741436 -0.00012207 0.890491 0.0616186 1.00039 0.171518L11.8285 10.9996C11.9105 11.0816 11.9663 11.186 11.9889 11.2997C12.0115 11.4134 11.9999 11.5312 11.9556 11.6383C11.9112 11.7453 11.8361 11.8369 11.7397 11.9012C11.6433 11.9656 11.53 12 11.4141 12Z" fill="#212529"/>
</g>
</g>
<defs>
<clipPath id="clip0_114_18346">
<rect width="12" height="12" fill="white"/>
</clipPath>
</defs>
</svg>
