<svg width="16" height="17" viewBox="0 0 16 17" fill="none" xmlns="http://www.w3.org/2000/svg">
<path fill-rule="evenodd" clip-rule="evenodd" d="M10.5 3.75C10.5 5.82106 8.82105 7.5 6.75 7.5C4.67894 7.5 3 5.82106 3 3.75C3 1.67894 4.67894 0 6.75 0C8.82105 0 10.5 1.67894 10.5 3.75ZM5.25 9C2.35051 9 0 11.3505 0 14.25C0 15.4927 1.00736 16.5 2.25 16.5H7.80697C8.13112 16.5 8.31525 16.1041 8.1474 15.8267C7.73647 15.1478 7.5 14.3516 7.5 13.5C7.5 11.9744 8.25915 10.6262 9.4203 9.81233C9.69285 9.62138 9.6696 9.18315 9.34402 9.11415C8.99115 9.03938 8.62515 9 8.25 9H5.25Z" fill="white"/>
<rect x="13.6001" y="10.6001" width="1.13136" height="5.65679" rx="0.565679" transform="rotate(45 13.6001 10.6001)" fill="white"/>
<rect x="14.3999" y="14.6" width="1.13136" height="5.65679" rx="0.565679" transform="rotate(135 14.3999 14.6)" fill="white"/>
</svg>
