<svg width="17" height="17" viewBox="0 0 17 17" fill="none" xmlns="http://www.w3.org/2000/svg">
<rect x="0.251474" y="0.251474" width="15.6591" height="15.5914" rx="7.79569" stroke="#212529" stroke-width="0.502948"/>
<g clip-path="url(#clip0_114_16735)">
<path d="M4.45389 11.7749C4.38102 11.7749 4.30979 11.7533 4.2492 11.7128C4.18861 11.6723 4.14138 11.6148 4.11349 11.5475C4.08561 11.4801 4.07831 11.4061 4.09253 11.3346C4.10675 11.2631 4.14185 11.1975 4.19338 11.146L11.0009 4.3385C11.0699 4.26941 11.1637 4.23059 11.2614 4.23059C11.3591 4.23059 11.4528 4.26941 11.5219 4.3385C11.591 4.40759 11.6298 4.5013 11.6298 4.59901C11.6298 4.69672 11.591 4.79043 11.5219 4.85952L4.7144 11.667C4.68022 11.7012 4.63961 11.7284 4.5949 11.7469C4.5502 11.7654 4.50227 11.7749 4.45389 11.7749Z" fill="#3182DE"/>
<path d="M11.2613 11.7749C11.213 11.7749 11.165 11.7654 11.1203 11.7469C11.0756 11.7284 11.035 11.7012 11.0008 11.667L4.19336 4.85952C4.12426 4.79043 4.08545 4.69672 4.08545 4.59901C4.08545 4.5013 4.12426 4.40759 4.19336 4.3385C4.26245 4.26941 4.35616 4.23059 4.45387 4.23059C4.55158 4.23059 4.64529 4.26941 4.71438 4.3385L11.5219 11.146C11.5734 11.1975 11.6085 11.2631 11.6227 11.3346C11.6369 11.4061 11.6296 11.4801 11.6017 11.5475C11.5739 11.6148 11.5266 11.6723 11.466 11.7128C11.4054 11.7533 11.3342 11.7749 11.2613 11.7749Z" fill="#3182DE"/>
</g>
<defs>
<clipPath id="clip0_114_16735">
<rect width="7.54422" height="7.54422" fill="white" transform="translate(4.08545 4.23062)"/>
</clipPath>
</defs>
</svg>
