<svg width="24" height="36" viewBox="0 0 24 36" fill="none" xmlns="http://www.w3.org/2000/svg">
<g filter="url(#filter0_d_7_2569)">
<rect x="5" y="5" width="14" height="26" rx="3" fill="#3182DE"/>
</g>
<path d="M9.58809 14.0001C9.47345 13.9975 9.36088 14.0318 9.26601 14.0983C9.17115 14.1647 9.09872 14.26 9.05878 14.3709C9.01884 14.4817 9.01339 14.6027 9.04318 14.7169C9.07296 14.8311 9.13651 14.9328 9.22498 15.0081L12.6007 17.9908L9.22498 20.9725C9.16378 21.0189 9.11253 21.0778 9.07443 21.1456C9.03633 21.2133 9.01221 21.2885 9.00358 21.3663C8.99494 21.4442 9.00198 21.523 9.02426 21.5979C9.04653 21.6728 9.08356 21.7421 9.13302 21.8016C9.18248 21.861 9.24331 21.9093 9.31169 21.9433C9.38008 21.9774 9.45456 21.9966 9.53045 21.9996C9.60635 22.0026 9.68203 21.9895 9.75276 21.9609C9.8235 21.9324 9.88775 21.8891 9.94151 21.8337L13.8064 18.4231C13.8671 18.3697 13.9159 18.3034 13.9493 18.2286C13.9827 18.1539 14 18.0726 14 17.9903C14 17.908 13.9827 17.8266 13.9493 17.7519C13.9159 17.6772 13.8671 17.6108 13.8064 17.5574L9.94151 14.1435C9.84387 14.054 9.71864 14.0032 9.58809 14V14.0001Z" fill="white"/>
<defs>
<filter id="filter0_d_7_2569" x="0.272727" y="0.272727" width="23.4545" height="35.4545" filterUnits="userSpaceOnUse" color-interpolation-filters="sRGB">
<feFlood flood-opacity="0" result="BackgroundImageFix"/>
<feColorMatrix in="SourceAlpha" type="matrix" values="0 0 0 0 0 0 0 0 0 0 0 0 0 0 0 0 0 0 127 0" result="hardAlpha"/>
<feOffset/>
<feGaussianBlur stdDeviation="2.36364"/>
<feComposite in2="hardAlpha" operator="out"/>
<feColorMatrix type="matrix" values="0 0 0 0 0.509804 0 0 0 0 0.635294 0 0 0 0 0.862745 0 0 0 1 0"/>
<feBlend mode="normal" in2="BackgroundImageFix" result="effect1_dropShadow_7_2569"/>
<feBlend mode="normal" in="SourceGraphic" in2="effect1_dropShadow_7_2569" result="shape"/>
</filter>
</defs>
</svg>
