<svg width="24" height="23" viewBox="0 0 24 23" fill="none" xmlns="http://www.w3.org/2000/svg">
<g clip-path="url(#clip0_103_9092)">
<path d="M23.379 11.9363C23.269 14.7154 22.1532 17.4623 20.0309 19.5845C17.9086 21.7068 15.1618 22.8226 12.3827 22.9326C12.1488 22.942 11.9148 22.9443 11.6809 22.9391C8.82969 22.8788 5.99627 21.7606 3.82022 19.5845C1.64416 17.4085 0.525866 14.5751 0.465508 11.7239C0.460358 11.4899 0.462687 11.256 0.472045 11.0221C0.582016 8.24292 1.69789 5.49605 3.82017 3.37382C5.94196 1.25199 8.68882 0.135667 11.468 0.0257407C11.7014 0.0163824 11.9358 0.014054 12.1698 0.0192033C15.0214 0.0795621 17.8549 1.19777 20.0309 3.37382C22.207 5.54987 23.3252 8.38329 23.3855 11.2345C23.3907 11.4684 23.3884 11.7024 23.379 11.9363Z" fill="#FCF6D6"/>
<path d="M8.65776 19.585C4.18381 15.1084 4.18381 7.85027 8.65776 3.37368C10.2756 1.75491 12.257 0.721838 14.3389 0.27379C10.6634 -0.517213 6.67448 0.51577 3.81829 3.37368C-0.655656 7.85031 -0.655656 15.1084 3.81829 19.585C6.67439 22.4428 10.6634 23.4759 14.3389 22.6849C12.257 22.2368 10.2756 21.2038 8.65776 19.585Z" fill="#EAE3C5"/>
<path d="M11.9256 0.019137V0.0204961C11.8982 3.06869 10.6951 5.93543 8.53834 8.09216C6.38153 10.2489 3.51512 11.4514 0.466372 11.4793H0.465452C0.46041 11.2503 0.46269 11.0212 0.471853 10.7922C3.33506 10.7629 6.02649 9.63186 8.05273 7.60613C10.0785 5.58045 11.2096 2.88864 11.2384 0.0255378C11.4671 0.0164188 11.6966 0.0140952 11.9256 0.019137Z" fill="#C1BBA0"/>
<path d="M23.3794 12.1665C20.5163 12.1958 17.8245 13.3268 15.7988 15.3525C13.7726 17.3782 12.6416 20.07 12.6127 22.9331C12.3837 22.9423 12.1546 22.9446 11.9256 22.9395V22.9391C11.9531 19.89 13.156 17.0232 15.3128 14.8665C17.4695 12.7098 20.3362 11.5068 23.3849 11.4793H23.3858C23.3908 11.7084 23.3885 11.9374 23.3794 12.1665Z" fill="#C1BBA0"/>
<path d="M21.5551 13.2893C21.4808 13.2893 21.406 13.2669 21.3428 13.2206C21.1919 13.1101 21.1647 12.9054 21.2821 12.7633C21.6163 12.3588 21.5386 11.7738 21.1089 11.4592C20.958 11.3487 20.9308 11.1439 21.0482 11.0019C21.1655 10.8598 21.3831 10.8342 21.534 10.9447C22.2651 11.4799 22.3973 12.4752 21.8287 13.1634C21.7604 13.2461 21.6583 13.2893 21.5551 13.2893Z" fill="#EA5149"/>
<path d="M19.9134 13.8926C19.8611 13.8926 19.8081 13.878 19.7591 13.8474C19.6055 13.7512 19.5501 13.5329 19.6355 13.3598C19.7378 13.1523 19.7623 12.9124 19.7044 12.6841C19.6465 12.4559 19.5132 12.2667 19.3291 12.1514C19.1754 12.0553 19.12 11.837 19.2054 11.6639C19.2907 11.4907 19.4845 11.4284 19.6381 11.5245C19.971 11.7329 20.2118 12.0747 20.3164 12.4871C20.421 12.8995 20.3767 13.3332 20.1918 13.7081C20.1337 13.8259 20.0252 13.8926 19.9134 13.8926Z" fill="#EA5149"/>
<path d="M17.6231 14.4959C17.593 14.4959 17.5623 14.4892 17.5321 14.4753C17.3813 14.4057 17.2999 14.18 17.3501 13.9711C17.4037 13.7485 17.3915 13.5102 17.3157 13.3002C17.2399 13.0902 17.1096 12.9337 16.9489 12.8595C16.7981 12.7898 16.7167 12.5642 16.7669 12.3553C16.8172 12.1465 16.9802 12.0335 17.1308 12.1032C17.4374 12.2448 17.6859 12.5433 17.8304 12.9437C17.9749 13.3441 17.9982 13.7985 17.896 14.2233C17.8558 14.3902 17.7436 14.4959 17.6231 14.4959Z" fill="#EA5149"/>
<path d="M16.3619 15.0992C16.3478 15.0992 16.3335 15.0985 16.3191 15.0971C16.1087 15.0765 15.9571 14.9102 15.9805 14.7255C16.0285 14.3457 15.7157 14.0024 15.2831 13.9602C15.0727 13.9397 14.9211 13.7733 14.9445 13.5886C14.9679 13.4039 15.1578 13.2708 15.3678 13.2913C16.2205 13.3745 16.8372 14.0512 16.7424 14.7998C16.7206 14.9719 16.5546 15.0992 16.3619 15.0992Z" fill="#EA5149"/>
<path d="M15.2085 16.9091C15.0393 16.9091 14.8936 16.7641 14.8745 16.5681C14.8323 16.1355 14.4889 15.8228 14.1092 15.8707C13.9243 15.894 13.7582 15.7425 13.7376 15.532C13.7171 15.3216 13.8502 15.1321 14.0349 15.1088C14.7831 15.0142 15.4601 15.6306 15.5434 16.4834C15.5639 16.6938 15.4308 16.8833 15.2461 16.9067C15.2334 16.9083 15.2208 16.9091 15.2085 16.9091Z" fill="#EA5149"/>
<path d="M14.5433 18.1157C14.3764 18.1157 14.221 18.0394 14.1653 17.9189C14.0911 17.7581 13.9346 17.6279 13.7246 17.5521C13.5147 17.4763 13.2763 17.4641 13.0537 17.5177C12.8449 17.568 12.6191 17.4865 12.5495 17.3357C12.4799 17.185 12.5928 17.0221 12.8016 16.9718C13.2263 16.8696 13.6807 16.8929 14.0811 17.0374C14.4816 17.1819 14.78 17.4304 14.9216 17.737C14.9912 17.8877 14.8783 18.0507 14.6695 18.1009C14.6276 18.1109 14.5851 18.1157 14.5433 18.1157Z" fill="#EA5149"/>
<path d="M13.3772 19.9256C13.2512 19.9256 13.129 19.8666 13.0634 19.7619C12.9482 19.5777 12.759 19.4444 12.5308 19.3865C12.3026 19.3287 12.0626 19.3531 11.8551 19.4555C11.6819 19.5408 11.4636 19.4855 11.3675 19.3318C11.2713 19.1781 11.3337 18.9843 11.5068 18.899C11.8818 18.7141 12.3153 18.6699 12.7278 18.7745C13.1402 18.8791 13.482 19.12 13.6904 19.4528C13.7865 19.6065 13.7242 19.8003 13.551 19.8856C13.4959 19.9127 13.4361 19.9256 13.3772 19.9256Z" fill="#EA5149"/>
<path d="M12.8066 21.7355C12.7095 21.7355 12.6134 21.6896 12.5492 21.6019C12.2345 21.1721 11.6495 21.0944 11.245 21.4287C11.1028 21.5461 10.8982 21.5189 10.7877 21.3679C10.6772 21.217 10.7027 20.9995 10.8448 20.8821C11.533 20.3135 12.5284 20.4456 13.0636 21.1767C13.174 21.3277 13.1485 21.5452 13.0064 21.6626C12.947 21.7117 12.8766 21.7355 12.8066 21.7355Z" fill="#EA5149"/>
<path d="M12.2033 2.42976C12.1062 2.42976 12.0101 2.38385 11.9458 2.29618C11.7935 2.08818 11.5738 1.95558 11.3275 1.92292C11.081 1.89016 10.8376 1.96132 10.6417 2.12314C10.4996 2.24043 10.2948 2.21328 10.1844 2.06245C10.0739 1.91162 10.0995 1.69435 10.2415 1.57697C10.5749 1.3017 10.9894 1.18075 11.4083 1.23637C11.8274 1.29199 12.201 1.51751 12.4603 1.8714C12.5708 2.02224 12.5452 2.23955 12.4031 2.35688C12.3437 2.40596 12.2732 2.42976 12.2033 2.42976Z" fill="#EA5149"/>
<path d="M11.5673 4.23966C11.4413 4.23966 11.3191 4.18057 11.2535 4.07579C11.0155 3.69535 10.4736 3.55773 10.0451 3.76915C9.87196 3.85458 9.65366 3.79919 9.55758 3.6454C9.46141 3.49161 9.52377 3.29771 9.6969 3.21232C10.4709 2.83033 11.4504 3.07897 11.8804 3.76647C11.9766 3.92026 11.9142 4.11416 11.7411 4.19955C11.686 4.22674 11.6262 4.23966 11.5673 4.23966Z" fill="#EA5149"/>
<path d="M10.9235 6.04958C10.7566 6.04958 10.6012 5.97336 10.5455 5.85279C10.4712 5.69202 10.3147 5.56172 10.1048 5.48598C9.8949 5.41017 9.65652 5.39798 9.43386 5.45158C9.22498 5.50184 8.99931 5.42034 8.92968 5.26962C8.86006 5.11888 8.97297 4.95594 9.18179 4.90568C9.60657 4.80346 10.061 4.82681 10.4613 4.97132C10.8617 5.11583 11.1602 5.36427 11.3018 5.67088C11.3714 5.82162 11.2585 5.98456 11.0497 6.03482C11.0079 6.04481 10.9653 6.04958 10.9235 6.04958Z" fill="#EA5149"/>
<path d="M9.17536 8.46281C9.00619 8.46281 8.86046 8.31783 8.84136 8.12179C8.79915 7.68921 8.45608 7.37632 8.07613 7.4244C7.8912 7.44768 7.72507 7.29615 7.70455 7.08578C7.68398 6.87536 7.81713 6.68587 8.00185 6.66249C8.7502 6.5678 9.42706 7.18444 9.51028 8.03713C9.53084 8.24755 9.39769 8.43703 9.21302 8.46041C9.20031 8.46198 9.18773 8.46281 9.17536 8.46281Z" fill="#EA5149"/>
<path d="M7.91563 9.66941C7.9015 9.66941 7.88722 9.66873 7.87284 9.66731C7.66243 9.64674 7.51085 9.48039 7.53418 9.29571C7.55746 9.11176 7.49775 8.93085 7.36603 8.78628C7.23432 8.64174 7.0464 8.55088 6.83687 8.53044C6.62646 8.50992 6.47489 8.34357 6.49822 8.15884C6.52165 7.97412 6.71161 7.84113 6.92149 7.86157C7.33458 7.90185 7.70503 8.08091 7.96464 8.3659C8.22426 8.65084 8.34193 9.00741 8.29606 9.37008C8.27429 9.5421 8.10834 9.66941 7.91563 9.66941Z" fill="#EA5149"/>
<path d="M6.16029 11.4793C6.13015 11.4793 6.09945 11.4727 6.06924 11.4588C5.9185 11.3892 5.83703 11.1634 5.88726 10.9546C5.94086 10.7319 5.92863 10.4936 5.85286 10.2837C5.77704 10.0738 5.64682 9.91716 5.48606 9.84295C5.33532 9.77333 5.25385 9.54761 5.30408 9.33877C5.35434 9.12999 5.51716 9.01708 5.66801 9.08666C5.97459 9.22825 6.22303 9.52675 6.36753 9.92713C6.51203 10.3275 6.53534 10.7819 6.43317 11.2067C6.39305 11.3738 6.28074 11.4793 6.16029 11.4793Z" fill="#EA5149"/>
<path d="M4.2275 12.0826C4.17523 12.0826 4.1222 12.0681 4.07322 12.0375C3.91954 11.9413 3.86423 11.723 3.94956 11.5499C4.05186 11.3424 4.07634 11.1025 4.01847 10.8742C3.9606 10.6459 3.82732 10.4568 3.64314 10.3415C3.48947 10.2454 3.43412 10.027 3.51948 9.85394C3.60485 9.6808 3.7986 9.61843 3.95224 9.71461C4.28505 9.92294 4.52591 10.2648 4.63049 10.6772C4.7351 11.0896 4.69083 11.5232 4.50593 11.8982C4.4479 12.0161 4.33938 12.0826 4.2275 12.0826Z" fill="#EA5149"/>
<path d="M2.2488 12.686C2.1746 12.686 2.09982 12.6635 2.03669 12.6173C1.88586 12.5068 1.85871 12.3021 1.97604 12.16C2.13787 11.9641 2.20894 11.7205 2.17623 11.4742C2.14356 11.2278 2.01096 11.0083 1.803 10.8559C1.65217 10.7454 1.62502 10.5406 1.74235 10.3986C1.8596 10.2565 2.07695 10.2309 2.22779 10.3414C2.58163 10.6007 2.8072 10.9742 2.86282 11.3933C2.91844 11.8123 2.79744 12.2267 2.52217 12.5601C2.45397 12.6427 2.35192 12.686 2.2488 12.686Z" fill="#EA5149"/>
</g>
<defs>
<clipPath id="clip0_103_9092">
<rect width="22.9256" height="22.9256" fill="white" transform="translate(0.46283 0.0165253)"/>
</clipPath>
</defs>
</svg>
