<svg width="24" height="24" viewBox="0 0 24 24" fill="none" xmlns="http://www.w3.org/2000/svg">
<path d="M0.46283 12.0799C0.46283 12.4178 0.47919 12.7557 0.506459 13.0881C0.604485 14.2106 0.865987 15.2896 1.26369 16.2923C1.66138 17.3004 2.20081 18.2378 2.84917 19.0824C4.64154 21.4093 7.31658 23.0278 10.3675 23.4419C10.422 23.4474 10.4765 23.4528 10.5309 23.4637C10.9886 23.5182 11.4517 23.5455 11.9256 23.5455C14.4427 23.5455 16.769 22.7335 18.6595 21.3602C19.7219 20.5864 20.6426 19.6383 21.389 18.5538C21.9229 17.7745 22.3696 16.9244 22.6965 16.0144C23.1433 14.7883 23.3885 13.4641 23.3885 12.0799C23.3885 10.4669 23.0506 8.92472 22.4514 7.52968C22.4405 7.50789 22.4296 7.48065 22.4187 7.45883C21.2419 4.7941 19.079 2.66337 16.3985 1.52446C15.0256 0.941373 13.511 0.619843 11.9256 0.619843C11.3045 0.619843 10.6998 0.668903 10.1059 0.761532C8.62951 0.99585 7.24567 1.51355 6.01985 2.25466C5.96545 2.28736 5.91091 2.32005 5.85645 2.3582C4.69055 3.08298 3.67176 4.01481 2.83824 5.09926C2.80007 5.14283 2.76735 5.18644 2.7347 5.2355C1.30731 7.14279 0.46283 9.51326 0.46283 12.0799V12.0799Z" fill="#D4D6D6"/>
<path d="M23.3884 12.2182C23.3884 13.6202 23.143 14.9594 22.704 16.2019C22.6427 16.3711 22.5813 16.5355 22.5152 16.6999C22.2131 17.4347 21.8449 18.1309 21.4107 18.774C19.6689 19.8811 17.6156 20.5289 15.4112 20.5289C14.9487 20.5289 14.4861 20.4999 14.0329 20.4419C13.9763 20.4371 13.9243 20.4274 13.8724 20.4226C10.8562 20.0019 8.21759 18.363 6.43804 16.0085C5.79137 15.1528 5.26743 14.2052 4.87092 13.1851C4.47913 12.1698 4.21952 11.0772 4.12511 9.94104C4.09679 9.60745 4.08264 9.26902 4.08264 8.92577C4.08264 6.49877 4.80955 4.24584 6.0557 2.37964C6.11234 2.34098 6.16426 2.30714 6.2209 2.27813C6.96671 1.81399 7.76915 1.4369 8.61879 1.16132C9.14746 0.987252 9.69502 0.85674 10.2567 0.764877C10.8468 0.673019 11.4415 0.619843 12.0551 0.619843C13.6223 0.619843 15.1186 0.948594 16.478 1.53841C19.1261 2.68905 21.2643 4.84532 22.4255 7.54306C22.4397 7.56723 22.4491 7.5914 22.4586 7.61556C23.0533 9.02729 23.3884 10.5889 23.3884 12.2182V12.2182Z" fill="#E0E2E2"/>
<path d="M23.3884 11.9797C23.3884 13.3529 23.1424 14.6646 22.7025 15.8816C22.641 16.0473 22.5795 16.2083 22.5133 16.3693C21.4253 16.7197 20.2616 16.9091 19.0601 16.9091C18.5966 16.9091 18.133 16.8807 17.6789 16.8286C17.6221 16.8239 17.57 16.8097 17.5133 16.8049C14.4953 16.393 11.851 14.7925 10.0677 12.4816C9.41959 11.6482 8.88979 10.7154 8.49716 9.71625C8.10453 8.72185 7.84436 7.65642 7.74975 6.54362C7.72137 6.21218 7.70245 5.88071 7.70245 5.54923C7.70245 3.99134 8.01465 2.50447 8.58704 1.15019C9.11684 0.979698 9.66558 0.85187 10.2285 0.761895C10.8198 0.671926 11.4158 0.619843 12.0308 0.619843C13.6013 0.619843 15.1008 0.941835 16.4631 1.51952C19.1169 2.64651 21.2597 4.75845 22.4234 7.40072C22.4376 7.4244 22.4471 7.44807 22.4565 7.47173C23.0526 8.85444 23.3884 10.3839 23.3884 11.9797V11.9797Z" fill="#ECF0F1"/>
<path d="M5.97603 11.1633C6.60518 12.7332 7.38753 14.3953 8.30578 16.1191C8.07341 16.3704 7.858 16.6321 7.66529 16.9091C7.20609 16.5192 6.78094 16.0934 6.39551 15.642C5.71523 14.8468 5.1597 13.9644 4.74583 13.0153C4.44545 12.3382 4.22436 11.6199 4.08264 10.876C4.68356 11.0197 5.31838 11.1172 5.97603 11.1633V11.1633Z" fill="#ECF0F1"/>
<path d="M22.1818 7.51609L21.6068 7.8595L21.5907 7.72026L21.5785 7.59037L22.1454 7.2562C22.1535 7.28407 22.1575 7.32117 22.1656 7.34905L22.1697 7.37686L22.1818 7.51609Z" fill="#ECF0F1"/>
<path opacity="0.5" d="M12.5289 7.85864C12.5289 7.96533 12.5341 8.07203 12.5427 8.17699C12.5737 8.53149 12.6562 8.87222 12.7818 9.18886C12.9074 9.50722 13.0778 9.80321 13.2825 10.0699C13.8485 10.8048 14.6933 11.3159 15.6567 11.4466C15.6739 11.4484 15.6911 11.4501 15.7083 11.4535C15.8529 11.4707 15.9991 11.4793 16.1488 11.4793C16.9436 11.4793 17.6782 11.2229 18.2752 10.7893C18.6107 10.5449 18.9015 10.2455 19.1372 9.90303C19.3058 9.65694 19.4469 9.38849 19.5501 9.10111C19.6912 8.71391 19.7686 8.29575 19.7686 7.85865C19.7686 7.34927 19.6619 6.86226 19.4727 6.42172C19.4692 6.41484 19.4658 6.40624 19.4624 6.39935C19.0907 5.55786 18.4077 4.88499 17.5613 4.52534C17.1277 4.34121 16.6494 4.23967 16.1488 4.23967C15.9526 4.23967 15.7617 4.25516 15.5741 4.28441C15.1079 4.35841 14.6709 4.52189 14.2838 4.75593C14.2666 4.76626 14.2494 4.77658 14.2322 4.78863C13.864 5.01751 13.5423 5.31176 13.2791 5.65423C13.267 5.66798 13.2567 5.68176 13.2464 5.69725C12.7956 6.29954 12.5289 7.04811 12.5289 7.85864V7.85864Z" fill="white"/>
<path opacity="0.5" d="M12.5289 7.86046C12.5289 9.8394 14.1303 11.4793 16.1488 11.4793C18.1129 11.4793 19.7686 9.89614 19.7686 7.86046C19.7686 6.39191 18.8868 5.09174 17.5613 4.52882C15.1939 3.52389 12.5289 5.25982 12.5289 7.86046V7.86046Z" fill="white"/>
<path d="M2.78431 18.6755C3.61431 19.2361 4.75599 19.6492 6.35758 19.9693C7.23767 21.1165 8.63912 21.9849 10.3471 22.6895V22.6896C10.3458 22.9526 10.3635 23.2669 10.3824 23.5241C10.4375 23.5319 10.493 23.5389 10.5486 23.5455C10.5296 23.2919 10.5107 22.9755 10.5111 22.7101C10.5111 22.7098 10.5111 22.7095 10.5111 22.7092C12.146 22.4983 13.5901 21.9651 14.8648 21.146L14.8638 21.1595C15.1032 21.177 15.349 21.1856 15.599 21.1856C16.6699 21.1856 17.8226 21.0268 18.9283 20.7244L18.7267 21.4348C20.564 20.1017 21.9914 18.2401 22.7851 16.0737C22.7851 16.0733 22.7851 16.0729 22.7851 16.0729L22.2183 16.4078C21.9809 14.5255 21.7038 13.2315 21.3725 12.4569C21.8901 10.9366 22.0345 9.37329 21.7587 7.76156L21.7793 7.84083L22.5592 7.63856L22.5179 7.47973L21.738 7.682L21.7586 7.76139C20.746 6.41065 19.5333 5.37392 18.1253 4.6439L18.1418 4.63458C17.4674 3.44454 16.697 2.43012 15.8497 1.61567L16.4496 1.52825C15.0671 0.943168 13.5467 0.619843 11.9507 0.619843C11.3273 0.619843 10.7149 0.669078 10.1182 0.76427L10.5445 0.959245C9.47441 1.56403 8.35094 2.39541 7.35268 3.3221C5.8541 3.71605 4.50989 4.38861 3.35283 5.39895C3.35249 5.39873 3.35227 5.39858 3.35193 5.39837C3.2668 5.34339 3.03815 5.20224 2.80579 5.11608C2.77043 5.16162 2.73547 5.20717 2.70176 5.25353C2.91888 5.32533 3.15207 5.46607 3.24787 5.5272C3.24797 5.52727 3.24805 5.52731 3.24815 5.52738C2.54801 6.94361 2.16024 8.43672 2.23837 10.0445C1.59672 11.0973 1.05452 12.4426 0.79208 13.6311C0.667707 13.4968 0.558669 13.3293 0.46283 13.133C0.658991 15.3876 1.50697 17.456 2.81798 19.1498C2.78165 18.9644 2.76834 18.8041 2.78431 18.6755V18.6755ZM5.98582 11.054L9.38075 6.70512C11.3927 6.85107 13.3086 7.08665 15.076 7.40539L17.1651 12.358C16.2586 13.798 15.1521 15.3037 13.6979 17.0759L8.23274 16.3282C7.34787 14.4947 6.59278 12.7222 5.98582 11.054V11.054ZM17.9376 4.60982C16.81 5.3025 15.8358 6.15298 15.0932 7.24177C13.3267 6.92369 11.4129 6.68838 9.4039 6.54225C8.92465 5.32734 8.30689 4.26806 7.55588 3.35846C8.57446 2.42592 9.71622 1.59689 10.7925 1.0097C12.3078 0.932032 13.9141 1.1475 15.5879 1.58077L15.5811 1.58814C16.4523 2.39135 17.2445 3.40788 17.9376 4.60982ZM14.9602 21.0008C14.7566 19.5997 14.3818 18.327 13.8023 17.2079C15.2655 15.4262 16.3791 13.9128 17.2918 12.4654C18.4766 12.8048 19.8123 12.8041 21.2464 12.5815C21.5686 13.3677 21.8392 14.6735 22.0724 16.567C21.3027 17.9606 20.3337 19.2877 19.0739 20.5176L19.0727 20.5133C17.701 20.9111 16.2446 21.0829 14.9602 21.0008V21.0008ZM6.33254 19.7969C4.71886 19.4698 3.58704 19.0476 2.77832 18.4717C1.79768 16.8844 1.15942 15.3398 0.89822 13.8423L0.914507 13.8455C1.15257 12.6497 1.69718 11.2626 2.34936 10.1782C3.38917 10.6984 4.5517 11.0044 5.83033 11.1077C6.43817 12.7785 7.194 14.5533 8.07948 16.389C7.26469 17.3732 6.66446 18.4974 6.33254 19.7969V19.7969Z" fill="#5B5E71"/>
<path d="M19.8596 19.2663C19.5255 19.6854 19.1592 20.0935 18.7605 20.4905L18.7551 20.485C17.4081 20.8875 15.9749 21.0585 14.7141 20.9758C14.6817 20.7497 14.644 20.5291 14.6063 20.314C14.3154 20.3085 14.019 20.281 13.7334 20.2479C13.6796 20.2424 13.6257 20.2313 13.5718 20.2258C11.1741 19.8949 9.01891 18.7921 7.34332 17.1764C6.8476 17.9539 6.4704 18.8141 6.23336 19.7626C4.64932 19.4318 3.53397 19.0071 2.73655 18.4281C1.77747 16.829 1.14712 15.2684 0.888503 13.7574L0.904617 13.763C1.14172 12.5553 1.67513 11.1602 2.31627 10.0628C2.82811 10.3275 3.36691 10.5371 3.93807 10.6915C3.8842 10.3827 3.84651 10.0683 3.81955 9.74852C3.79258 9.41212 3.7764 9.07575 3.7764 8.73386C3.7764 7.1402 4.08895 5.61826 4.66011 4.23967C4.1805 4.53191 3.72792 4.86276 3.30232 5.24325C3.22142 5.18812 2.99516 5.05026 2.76891 4.96205C2.73116 5.00614 2.6988 5.05026 2.66651 5.09991C2.87665 5.17157 3.10829 5.31495 3.19991 5.37563C2.56949 6.68253 2.19775 8.0556 2.19775 9.52241C2.19775 9.66027 2.20314 9.79261 2.20854 9.93047C1.57812 10.9893 1.04471 12.3458 0.786098 13.5479C0.662119 13.41 0.55978 13.2446 0.46283 13.0461C0.656791 15.318 1.49189 17.4025 2.7797 19.1119C2.74194 18.9244 2.73116 18.7645 2.74734 18.6322C3.56093 19.2001 4.68161 19.6137 6.26033 19.9391C7.1224 21.0971 8.50169 21.9683 10.1774 22.6797C10.1774 22.9444 10.1935 23.2642 10.2151 23.5234C10.269 23.5289 10.3229 23.5344 10.3767 23.5455C10.3605 23.2863 10.339 22.9665 10.339 22.7018C11.95 22.4867 13.3671 21.9518 14.6225 21.1247L14.6171 21.1357C14.8542 21.1578 15.0966 21.1632 15.3444 21.1632C16.3951 21.1632 17.5266 21.0033 18.615 20.7001L18.4156 21.4169C19.4663 20.6339 20.3769 19.6744 21.115 18.577C20.7109 18.8362 20.2907 19.0678 19.8596 19.2663V19.2663ZM22.1657 7.42144L22.1603 7.40491L22.1442 7.34423L22.1334 7.34975L21.379 7.54829L21.3952 7.62547L21.4167 7.70819L22.1818 7.50416L22.1657 7.42144Z" fill="#525566"/>
</svg>
