<svg width="26" height="25" viewBox="0 0 26 25" fill="none" xmlns="http://www.w3.org/2000/svg">
<g clip-path="url(#clip0_103_8510)">
<path d="M25.3669 12.2445C25.3669 15.1236 24.3166 17.7574 22.578 19.7837C22.4617 19.9199 22.3416 20.0535 22.2184 20.1841C20.1775 22.3522 17.3101 23.7339 14.1193 23.825C14.0068 23.8285 13.8942 23.8301 13.7811 23.8301C13.6455 23.8301 13.5106 23.8279 13.376 23.8228C9.60953 23.6939 6.29987 21.7669 4.27795 18.8733C3.95168 18.4068 3.65914 17.915 3.4038 17.4015C2.63021 15.8483 2.1955 14.0972 2.1955 12.2445C2.1955 11.0952 2.36289 9.98491 2.67434 8.93675C2.79382 8.53545 2.9341 8.14361 3.09455 7.76186C3.72628 6.25724 4.66663 4.91433 5.83616 3.81227C5.97045 3.68554 6.10758 3.56229 6.24754 3.4425C7.37703 2.4744 8.69535 1.72036 10.1391 1.24278C10.3289 1.18005 10.5206 1.12204 10.7144 1.06908C11.691 0.801447 12.7193 0.658646 13.7811 0.658646C15.0429 0.658646 16.2579 0.860396 17.3952 1.23364C17.916 1.40449 18.4207 1.61129 18.9058 1.85087C21.7887 3.2751 23.9938 5.86319 24.9067 9.00137C25.0561 9.51394 25.1705 10.041 25.2478 10.5801C25.3266 11.1235 25.3669 11.6793 25.3669 12.2445V12.2445Z" fill="#FF8800"/>
<path d="M25.3669 12.2374C25.3669 15.1182 24.3323 17.7536 22.6198 19.7812C22.5052 19.9175 22.3869 20.0512 22.2655 20.1818C20.2551 22.3513 17.4306 23.7339 14.2875 23.825C14.1767 23.8285 14.0658 23.8301 13.9544 23.8301C13.8208 23.8301 13.6879 23.8279 13.5553 23.8228C12.1198 23.7727 10.7513 23.4535 9.49806 22.9131C9.08321 22.7343 8.68108 22.5311 8.29324 22.3056C8.34976 22.3081 8.40627 22.3107 8.46279 22.3125C8.59538 22.3176 8.72828 22.3198 8.86181 22.3198C8.97329 22.3198 9.08414 22.3182 9.195 22.3148C12.3381 22.2236 15.1626 20.8411 17.1729 18.6715C17.2943 18.541 17.4126 18.4072 17.5272 18.271C19.2397 16.2434 20.2744 13.608 20.2744 10.7271C20.2744 10.1616 20.2346 9.60548 20.157 9.06168C20.0809 8.52229 19.9682 7.9949 19.821 7.48201C18.9876 4.57186 17.0608 2.13422 14.5223 0.658646C14.9766 0.68104 15.4237 0.730878 15.8625 0.805951C16.4283 0.902472 16.9801 1.04158 17.5145 1.21979C18.0275 1.39076 18.5246 1.59768 19.0025 1.8374C21.8422 3.26251 24.0143 5.85219 24.9136 8.99228C25.0608 9.50517 25.1735 10.0326 25.2496 10.572C25.3272 11.1158 25.3669 11.6719 25.3669 12.2374V12.2374Z" fill="#E14F01"/>
<path d="M22.9278 11.5525C22.9278 14.452 21.8855 17.1045 20.1604 19.1452C20.045 19.2823 19.9258 19.417 19.8035 19.5484C17.7783 21.732 14.933 23.1235 11.7667 23.2152C11.655 23.2187 11.5434 23.2203 11.4311 23.2203C11.2966 23.2203 11.1627 23.2181 11.0291 23.213C10.5123 23.1949 10.0043 23.1425 9.50695 23.0574C9.08904 22.8774 8.68395 22.673 8.29324 22.446C8.35018 22.4485 8.40711 22.4511 8.46404 22.453C8.59761 22.458 8.73149 22.4603 8.866 22.4603C8.9783 22.4603 9.08998 22.4587 9.20165 22.4552C12.3679 22.3634 15.2133 20.9719 17.2384 18.7884C17.3607 18.6569 17.4799 18.5223 17.5953 18.3852C19.3205 16.3444 20.3628 13.6919 20.3628 10.7924C20.3628 10.2232 20.3227 9.6635 20.2445 9.11617C20.1679 8.57329 20.0543 8.04247 19.9061 7.52626C19.0665 4.59723 17.1255 2.14379 14.5682 0.658646C15.0259 0.681185 15.4763 0.731347 15.9183 0.806906C16.121 0.893893 16.32 0.986596 16.5164 1.08501C19.3771 2.51936 21.5652 5.12583 22.4711 8.28629C22.6194 8.80251 22.7329 9.33332 22.8096 9.87621C22.8878 10.4235 22.9278 10.9832 22.9278 11.5525V11.5525Z" fill="#F06B02"/>
<path d="M11.8686 4.06945C11.1002 4.58347 10.3503 5.17592 9.63602 5.82962C9.70628 5.88337 9.77623 5.93711 9.84523 5.99023C10.1987 6.26115 10.5324 6.51738 10.8588 6.75892L10.8686 6.76642C13.1645 8.64096 15.2979 10.643 17.2097 12.7169C19.3289 15.0151 21.1727 17.4009 22.6986 19.8191C22.5823 19.9541 22.4623 20.0866 22.3391 20.216C18.729 14.4527 13.9623 9.95679 10.545 7.16608C10.2164 6.92297 9.88241 6.66674 9.52921 6.39551C9.4391 6.32614 9.34805 6.25646 9.25636 6.18615C8.5547 6.86204 7.89273 7.59667 7.28811 8.37379C8.60731 9.73275 9.45108 11.897 9.86225 14.9711C10.2923 18.4449 11.8837 21.6521 14.2443 23.8251C14.1318 23.8285 14.0193 23.8301 13.9062 23.8301C13.7707 23.8301 13.6359 23.8279 13.5013 23.8229C12.5312 22.8452 11.6752 21.6627 10.9993 20.3613C10.1367 18.7005 9.58152 16.9091 9.34962 15.0361C8.95988 12.1216 8.18039 10.0705 6.97335 8.78939C4.29052 12.4278 3.37555 16.1179 4.40804 18.9167C4.08194 18.4542 3.78955 17.9668 3.53434 17.4578C3.53277 17.4478 3.53182 17.4378 3.53056 17.4278C3.42375 16.4882 3.48582 15.4789 3.71488 14.4274C4.14086 12.4738 5.13491 10.4039 6.5896 8.44191C6.5918 8.43848 6.59464 8.43504 6.59716 8.4316C5.904 7.93914 5.18437 7.74509 4.51264 7.87102C3.8762 7.99007 3.29016 8.4016 2.80527 9.06718C2.92468 8.6694 3.06489 8.28099 3.22526 7.90258C3.59389 7.62729 3.99435 7.44668 4.41686 7.36731C5.23447 7.2142 6.09493 7.44106 6.90845 8.02288C7.50425 7.26044 8.15424 6.53831 8.84204 5.87087C7.91479 5.16936 6.92483 4.46223 5.96544 3.98758C6.09966 3.86196 6.23671 3.73979 6.37661 3.62105C7.33978 4.12225 8.31209 4.82408 9.22076 5.51277C9.92936 4.85845 10.6739 4.26318 11.437 3.74166C11.1314 3.48449 10.8746 3.20858 10.6805 2.9236C10.3402 2.42395 10.1997 1.91243 10.2662 1.44059C10.4558 1.37841 10.6474 1.32091 10.8412 1.26842C10.5853 1.92993 11.0009 2.75205 11.8837 3.44637C12.1289 3.28951 12.3759 3.13983 12.6235 2.99922C14.3328 2.02836 15.9939 1.49996 17.5185 1.43153C18.039 1.60089 18.5434 1.80588 19.0283 2.04336C17.2226 1.69995 15.1031 2.18178 12.8803 3.44387C12.6992 3.54668 12.5189 3.65448 12.339 3.76635C12.5237 3.88259 12.7225 3.9932 12.9342 4.09663C13.6636 4.45285 14.4667 4.71815 15.3218 4.88563C20.3028 5.86087 23.4623 7.23295 25.026 9.13123C25.1754 9.63932 25.2897 10.1618 25.3669 10.6961C24.9082 9.5387 23.9485 8.5619 22.4472 7.72135C20.7502 6.77142 18.3868 6.00804 15.2216 5.38841C14.3224 5.21217 13.4758 4.9325 12.7058 4.55628C12.4061 4.41005 12.1257 4.246 11.8686 4.06945V4.06945Z" fill="#333333"/>
<path d="M3.24323 10.9902C3.34068 10.3167 3.48948 9.80822 3.37156 9.80528C3.25405 9.80234 2.93246 10.3709 2.83501 11.0444C2.73749 11.7182 2.90108 12.2414 3.01859 12.2444C3.13651 12.2473 3.14571 11.664 3.24323 10.9902Z" fill="white"/>
<path d="M2.94382 12.2444C2.87035 12.0316 2.82217 11.6443 2.88618 11.1906C2.98206 10.5151 3.29098 9.94091 3.41491 9.92031C3.4165 9.84751 3.40398 9.80652 3.37174 9.80527C3.25444 9.80339 2.93307 10.3861 2.83518 11.0768C2.75721 11.6298 2.84524 12.0834 2.94382 12.2444V12.2444Z" fill="#DCE0F4"/>
<path d="M3.58564 8.89284C3.62313 8.72501 3.62824 8.60023 3.59649 8.58676C3.56485 8.57334 3.46868 8.68931 3.43119 8.85713C3.39368 9.02507 3.42908 9.18121 3.46072 9.19463C3.49246 9.20809 3.54813 9.06078 3.58564 8.89284V8.89284Z" fill="white"/>
<path d="M3.43703 9.19548C3.42504 9.13011 3.42382 9.03363 3.44464 8.93472C3.48182 8.75481 3.57799 8.63108 3.609 8.64557C3.6114 8.6458 3.61473 8.64841 3.61661 8.65318C3.61593 8.61641 3.60797 8.59039 3.59506 8.58685C3.56403 8.5724 3.46789 8.6961 3.4307 8.876C3.40338 9.01101 3.41591 9.13608 3.43703 9.19548Z" fill="#DCE0F4"/>
<path d="M21.7083 10.1102C20.8656 10.1102 20.1838 10.7919 20.1838 11.6346C20.1838 11.214 20.0126 10.8318 19.7382 10.5558C19.4622 10.2813 19.08 10.1102 18.6594 10.1102C19.08 10.1102 19.4622 9.93897 19.7382 9.66448C20.0126 9.38851 20.1838 9.0063 20.1838 8.58572C20.1838 9.0063 20.355 9.38851 20.6295 9.66448C20.9055 9.93897 21.2877 10.1102 21.7083 10.1102Z" fill="white"/>
</g>
<defs>
<clipPath id="clip0_103_8510">
<rect width="24.391" height="24.391" fill="white" transform="translate(0.975952 0.0488739)"/>
</clipPath>
</defs>
</svg>
