<svg width="26" height="20" viewBox="0 0 26 20" fill="none" xmlns="http://www.w3.org/2000/svg">
<path fill-rule="evenodd" clip-rule="evenodd" d="M13 19.2C19.687 19.2 25.1053 16.821 25.1053 13.8802V5.99998H0.894775V13.8804C0.894775 16.821 6.31305 19.2 13 19.2Z" fill="#668D97"/>
<path fill-rule="evenodd" clip-rule="evenodd" d="M0.894775 5.99999C0.894775 8.97944 6.31305 11.4 13 11.4C19.687 11.4 25.1053 8.97944 25.1053 5.99999C25.1053 3.01503 19.687 0.599991 13 0.599991C6.31305 0.599991 0.894775 3.01484 0.894775 5.99999Z" fill="#7CA2B1"/>
<path fill-rule="evenodd" clip-rule="evenodd" d="M16.3956 10.7017C21.4165 10.0966 25.1053 8.04689 25.1053 5.62083C25.1053 3.27115 21.6479 1.27594 16.8802 0.599991C19.1209 1.80487 20.5192 3.49473 20.5192 5.37018C20.5192 5.45193 20.5138 5.53369 20.5082 5.62101C20.365 7.76899 18.3831 9.65518 15.4211 10.8C15.7515 10.7727 16.0764 10.7399 16.3956 10.7017V10.7017Z" fill="#668D97"/>
<path fill-rule="evenodd" clip-rule="evenodd" d="M16.0764 19.1335C21.257 18.5683 25.1053 16.4514 25.1053 13.9298V5.99998C25.1053 8.46593 21.4167 10.5497 16.3956 11.1648C16.0764 11.2036 15.7515 11.2368 15.4211 11.2645V19.2C15.6415 19.1779 15.8616 19.1557 16.0764 19.1335Z" fill="#547884"/>
</svg>
