<svg width="15" height="15" viewBox="0 0 15 15" fill="none" xmlns="http://www.w3.org/2000/svg">
<path d="M13.4509 1.09131H10.0177L9.74874 0.556294C9.63255 0.323003 9.39425 0.175581 9.13362 0.175786H5.86351C5.60335 0.17479 5.36552 0.322593 5.25126 0.556294L4.98231 1.09131H1.54907C1.29627 1.09131 1.09131 1.29627 1.09131 1.54908V2.4646C1.09131 2.71741 1.29627 2.92237 1.54907 2.92237H13.4509C13.7037 2.92237 13.9087 2.71741 13.9087 2.4646V1.54908C13.9087 1.29627 13.7037 1.09131 13.4509 1.09131Z" fill="#212529"/>
<path d="M2.61337 13.5368C2.65869 14.2604 3.25875 14.8241 3.98379 14.8242H11.0162C11.7413 14.8241 12.3413 14.2604 12.3866 13.5368L12.9932 3.83789H2.00684L2.61337 13.5368Z" fill="#212529"/>
</svg>
