<svg width="20" height="21" viewBox="0 0 20 21" fill="none" xmlns="http://www.w3.org/2000/svg">
<path d="M16.2101 11.4766H3.78979C3.25034 11.4766 2.81323 11.0395 2.81323 10.5C2.81323 9.96055 3.25034 9.52344 3.78979 9.52344H16.2101C16.7496 9.52344 17.1867 9.96055 17.1867 10.5C17.1867 11.0395 16.7496 11.4766 16.2101 11.4766Z" fill="#212529"/>
<path d="M9 16.8969L9 4.47656C9 3.93711 9.43711 3.5 9.97656 3.5C10.516 3.5 10.9531 3.93711 10.9531 4.47656L10.9531 16.8969C10.9531 17.4363 10.516 17.8734 9.97656 17.8734C9.43711 17.8734 9 17.4363 9 16.8969Z" fill="#212529"/>
</svg>
