<svg width="15" height="15" viewBox="0 0 15 15" fill="none" xmlns="http://www.w3.org/2000/svg">
<g clip-path="url(#clip0_114_16751)">
<path d="M0.732559 15C0.58768 15 0.446047 14.9571 0.325576 14.8766C0.205104 14.7961 0.111207 14.6817 0.0557603 14.5479C0.000313745 14.414 -0.0141909 14.2667 0.0140811 14.1246C0.042353 13.9825 0.112131 13.852 0.21459 13.7496L13.7497 0.214428C13.8871 0.0770538 14.0734 -0.00012207 14.2677 -0.00012207C14.462 -0.00012207 14.6483 0.0770538 14.7857 0.214428C14.9231 0.351801 15.0002 0.53812 15.0002 0.732396C15.0002 0.926672 14.9231 1.11299 14.7857 1.25037L1.25053 14.7855C1.18257 14.8536 1.10183 14.9076 1.01294 14.9444C0.924049 14.9812 0.828765 15.0001 0.732559 15Z" fill="white"/>
<path d="M14.2677 15C14.1715 15.0001 14.0762 14.9812 13.9873 14.9444C13.8984 14.9076 13.8177 14.8536 13.7497 14.7855L0.21455 1.25037C0.0771758 1.11299 0 0.926672 0 0.732396C0 0.53812 0.0771758 0.351801 0.21455 0.214428C0.351924 0.0770538 0.538242 -0.00012207 0.732518 -0.00012207C0.926794 -0.00012207 1.11311 0.0770538 1.25049 0.214428L14.7856 13.7496C14.8881 13.852 14.9579 13.9825 14.9862 14.1246C15.0144 14.2667 14.9999 14.414 14.9445 14.5479C14.889 14.6817 14.7951 14.7961 14.6747 14.8766C14.5542 14.9571 14.4126 15 14.2677 15Z" fill="white"/>
</g>
<defs>
<clipPath id="clip0_114_16751">
<rect width="15" height="15" fill="white"/>
</clipPath>
</defs>
</svg>
